<?xml version="1.0" encoding="UTF-8" standalone="no"?>
<svg
   version="1.1"
   id="Layer_2"
   x="0px"
   y="0px"
   width="400.667px"
   height="400.666px"
   viewBox="0 0 400.667 400.666"
   enable-background="new 0 0 400.667 400.666"
   xml:space="preserve"
   sodipodi:docname="heading_mechanics.svg"
   inkscape:version="1.1 (c4e8f9ed74, 2021-05-24)"
   xmlns:inkscape="http://www.inkscape.org/namespaces/inkscape"
   xmlns:sodipodi="http://sodipodi.sourceforge.net/DTD/sodipodi-0.dtd"
   xmlns="http://www.w3.org/2000/svg"
   xmlns:svg="http://www.w3.org/2000/svg"><defs
   id="defs52" /><sodipodi:namedview
   id="namedview50"
   pagecolor="#ffffff"
   bordercolor="#666666"
   borderopacity="1.0"
   inkscape:pageshadow="2"
   inkscape:pageopacity="0.0"
   inkscape:pagecheckerboard="0"
   showgrid="false"
   inkscape:zoom="1.4524539"
   inkscape:cx="57.833161"
   inkscape:cy="101.89652"
   inkscape:window-width="1920"
   inkscape:window-height="1080"
   inkscape:window-x="1920"
   inkscape:window-y="0"
   inkscape:window-maximized="1"
   inkscape:current-layer="Layer_2" />
<filter
   filterUnits="objectBoundingBox"
   id="AI_Shadow_1"
   x="-1.0179844"
   y="-1.0106965"
   width="3.0359688"
   height="3.0213931">
	<feGaussianBlur
   stdDeviation="5"
   result="blur"
   in="SourceAlpha"
   id="feGaussianBlur2" />
	<feOffset
   dy="0"
   dx="0"
   result="offsetBlurredAlpha"
   in="blur"
   id="feOffset4" />
	<feMerge
   id="feMerge10">
		<feMergeNode
   in="offsetBlurredAlpha"
   id="feMergeNode6" />
		<feMergeNode
   in="SourceGraphic"
   id="feMergeNode8" />
	</feMerge>
</filter>
<g
   filter="url(#AI_Shadow_1)"
   id="g15">
	
</g>
<g
   filter="url(#AI_Shadow_1)"
   id="g19">
	<polygon
   fill="#FF2A00"
   points="200.381,332.311 194.542,344.439 206.542,344.439  "
   id="polygon17" />
</g>
<g
   filter="url(#AI_Shadow_1)"
   id="g23">
	<polygon
   fill="#FFFFFF"
   points="294.272,294.239 298.743,307.01 307.272,298.481  "
   id="polygon21" />
</g>
<g
   filter="url(#AI_Shadow_1)"
   id="g27">
	<polygon
   fill="#FFFFFF"
   points="105.938,294.771 94.146,298.898 102.02,306.771  "
   id="polygon25" />
</g>
<g
   filter="url(#AI_Shadow_1)"
   id="g31">
	<polygon
   fill="#FF2A00"
   points="68.291,200.382 56.291,194.604 56.291,206.477  "
   id="polygon29" />
</g>
<g
   filter="url(#AI_Shadow_1)"
   id="g35">
	<polygon
   fill="#FFFFFF"
   points="106.001,106.041 101.801,94.041 93.787,102.055  "
   id="polygon33" />
</g>
<g
   filter="url(#AI_Shadow_1)"
   id="g39">
	<polygon
   fill="#FFFFFF"
   points="294.731,105.894 306.519,101.767 298.646,93.894  "
   id="polygon37" />
</g>
<g
   filter="url(#AI_Shadow_1)"
   id="g43">
	<polygon
   fill="#FF2A00"
   points="332.311,200.285 344.44,206.125 344.441,194.125  "
   id="polygon41" />
</g>
<g
   filter="url(#AI_Shadow_1)"
   id="g47">
	<polygon
   fill="#FF2A00"
   points="200.619,68.022 206.458,55.893 194.458,55.892  "
   id="polygon45" />
</g>
<g
   id="g1514"
   transform="matrix(0,0.50430356,-0.50430356,0,281.15656,102.31534)"
   style="fill:none;fill-opacity:1;stroke:#fe2600;stroke-width:4.01914;stroke-miterlimit:4;stroke-dasharray:none;stroke-opacity:1"><g
     stroke="#d7d7d7"
     stroke-miterlimit="10"
     id="g1497"
     style="fill:none;fill-opacity:1;stroke:#fe2600;stroke-width:4.01914;stroke-miterlimit:4;stroke-dasharray:none;stroke-opacity:1"><path
       d="m 241.4,80.6 c 5.9,3.9 12.1,6.6 19,6.9 7,0.3 14,0.4 20.9,0.5 16.7,0.2 33.4,0.4 50,0.5 2.2,0 3.4,0.8 4.1,2.6 0.2,0.4 0.4,0.8 0.6,1.3 4.4,-0.2 5.2,3.2 6.5,6.1 2.4,1 3.3,2.8 2.4,5.5 -0.6,1.7 -0.3,3.2 -0.1,4.8 0.7,5.3 1.5,10.6 2,16 0.5,5.9 1,11.8 1.2,17.7 0.3,9.2 0.5,18.5 0.6,27.7 0,5.7 -0.2,11.5 -0.5,17.2 -0.2,4.9 -0.6,9.8 -1,14.7 -0.8,8.3 -1.6,16.6 -4,24.6 -0.6,1.9 -1.3,3.6 -2.7,5.1 -1.1,1.2 -2.4,1.2 -3.8,1.2 -0.3,0.6 -0.6,1.2 -0.9,1.9 -0.7,1.4 -1.7,2 -3.3,2 -22.4,-0.3 -44.8,-0.4 -67.1,-0.7 -7.7,-0.1 -14.9,1.7 -21.4,5.7 -0.6,0.3 -1.1,0.7 -1.8,1.2 0.2,1.6 0.4,3.3 0.7,4.9 1.2,8.2 2.4,16.3 3.7,24.5 0.2,1 0.6,2 1.1,2.9 3.2,5.3 5.2,11 5.2,17.2 0,5.7 -4.4,10.7 -10.1,11.5 -12.3,1.6 -24.6,3.3 -36.9,4.9 -11.7,1.6 -23.5,3.2 -35.2,4.7 -8.2,1.1 -16.3,2.3 -24.5,3.1 -6.6,0.7 -12.2,-4.1 -13.1,-10.7 -0.5,-3.8 -0.9,-7.6 -2.4,-11.2 -2.3,-5.5 -6.7,-8.7 -12.7,-8.8 -3.5,0 -7,-0.1 -10.5,-0.1 -4,0 -7,-1.8 -9,-5.2 L 90,266.1 c -2.1,-3.7 -5.2,-5.5 -9.5,-5.5 -10.2,0 -20.3,-0.2 -30.5,-0.3 -1.6,0 -3.1,-0.1 -4.7,-0.3 -2.3,-0.2 -3.8,-1.8 -3.9,-3.9 -0.1,-2.9 0,-5.8 -0.1,-8.6 2.5,-2.1 5.4,-3 8.6,-2.9 22.8,0.2 45.7,0.5 68.5,0.7 0.5,0 1,0.1 1.6,0.1 0.1,1 0.1,2 0.2,3.1 1.8,0 3.5,-0.1 5.1,0.1 2,0.2 3.3,-0.5 4.7,-1.8 6.6,-6 13.3,-11.8 20,-17.7 6.9,-6.2 13.8,-12.4 20.7,-18.5 0.2,-0.1 0.3,-0.3 0.6,-0.6 -0.4,-0.4 -0.8,-0.8 -1.2,-1.1 -4.9,-4.1 -8.2,-9.2 -9.8,-15.3 -0.2,-0.7 0,-1.4 0,-2.4 -0.9,-0.8 -1.1,-2 -1.1,-3.5 0.1,-2.6 0,-5.3 -0.2,-7.9 -0.3,-3.2 1,-6.2 1.7,-9.2 0.5,-2.2 1.1,-4.4 1.7,-6.6 0.5,-1.8 0.5,-3.5 0,-5.2 -1.1,-3.9 -2.2,-7.7 -3.1,-11.6 -0.3,-1.4 -0.4,-2.8 -0.4,-4.2 0,-2.9 0,-5.9 0.1,-8.8 0.1,-1 0.7,-2 1,-3 0,-0.6 -0.2,-1.3 0,-2 1.6,-6.2 5,-11.2 9.9,-15.3 0.3,-0.3 0.7,-0.6 1.1,-0.9 -1.9,-1.7 -3.7,-3.4 -5.5,-5 -12.4,-11.2 -24.8,-22.3 -37.1,-33.5 -0.8,-0.7 -1.5,-1.1 -2.6,-1 -1.6,0.1 -3.2,0 -4.8,0 -0.5,0 -1,0.1 -1.6,0.1 0,1 -0.1,1.9 -0.1,2.9 -0.6,0.1 -1.1,0.1 -1.5,0.1 C 94.9,76.4 72,76.1 49.2,75.9 c -3.1,0 -6,-0.9 -8.5,-3.1 0,-2.8 -0.1,-5.8 0,-8.8 0.1,-2.1 1.7,-3.5 3.9,-3.7 1.6,-0.1 3.2,-0.2 4.8,-0.2 10.2,0.1 20.4,0.1 30.6,0.3 4.1,0.1 7,-1.7 9,-5.1 2.7,-4.7 5.4,-9.5 8.1,-14.3 1.6,-2.9 4,-4.8 7.3,-5.3 0.6,-0.1 1.2,-0.1 1.8,-0.1 3.6,0 7.3,0.1 10.9,0.1 5.5,0 10.1,-3.2 12.2,-8.3 1.5,-3.5 1.9,-7.3 2.3,-11 1,-7.6 7.1,-12 14.8,-10.7 6.8,1.2 13.6,2.1 20.4,3.2 6.7,1 13.4,2.1 20.1,3.1 6.7,1 13.3,2 20,3 6,0.9 12.1,1.9 18.1,2.8 5.4,0.8 10.7,1.7 16.1,2.4 6.7,1 11.5,7.4 10.3,13.9 -0.2,1.3 -0.4,2.5 -0.5,3.8 -0.5,4.2 -2.7,7.7 -4.6,11.4 -0.4,0.7 -0.8,1.5 -0.9,2.2 -1,6.6 -1.9,13.3 -2.8,19.9 -0.4,2.7 -0.8,5.5 -1.2,8.2 0.1,0 0.1,0.5 0,1 z m -47.6,143.8 c 0.4,0.3 0.7,0.4 1,0.6 7.2,5.2 14.3,10.5 21.5,15.5 2.1,1.5 4.6,2.5 6.9,3.7 0.9,0.5 1.9,1 2.9,1.1 2.2,0.2 4.5,0.4 6.7,0.1 3.4,-0.5 7,-1 9.3,-3.9 0.1,-0.2 0.4,-0.3 0.6,-0.4 6.6,-4.1 13.9,-6.2 21.7,-6.2 l 24.5,0.3 c 7.3,0.1 14.6,0.1 21.8,0.2 7,0.1 13.9,0.2 20.9,0.2 0.9,0 2.1,-0.2 2.5,-0.7 1.2,-1.7 2.7,-3.2 3.1,-5.3 0.3,-1.5 0.7,-2.9 1,-4.4 1.6,-8.2 2.6,-16.5 3,-24.9 0.6,-11 0.8,-22.1 1.2,-33.1 0,-0.4 -0.1,-0.9 -0.2,-1.4 -2.5,1.3 -5.3,1 -6.6,-0.7 -1.2,-1.4 -1.2,-3.4 -0.2,-4.8 1,-1.4 3.9,-2.4 6.9,-0.7 0,-0.7 0.1,-1.3 0.1,-1.9 L 342.1,144 c -0.5,-13.9 -1.4,-27.8 -3.8,-41.6 -0.7,-3.9 -1.1,-8 -4,-11.4 -0.7,-0.9 -1.3,-1.5 -2.6,-1.5 -2.8,0 -5.6,-0.1 -8.4,-0.1 -7.9,-0.1 -15.8,-0.1 -23.8,-0.2 -6.3,-0.1 -12.5,-0.1 -18.8,-0.2 -4.1,0 -8.3,-0.2 -12.4,-0.1 -5.1,0.1 -10.2,-0.1 -15.2,-1.6 -4.8,-1.4 -9.4,-3.2 -13.1,-6.8 -0.4,-0.4 -0.9,-0.6 -1.4,-0.8 -3.6,-1.7 -7.4,-2.4 -11.4,-2.1 -1.6,0.1 -3.1,0.6 -4.6,1 -0.9,0.3 -1.7,0.8 -2.5,1.3 -1.6,0.9 -3.4,1.7 -4.9,2.7 -5.8,4 -11.5,8.1 -17.2,12.1 -1.5,1.1 -3.1,2.2 -4.9,3.5 0.7,0.5 1.1,0.8 1.5,1.2 2,1.7 3.9,3.5 5.8,5.2 2.7,2.5 5.5,4.9 8.2,7.4 5.5,5 11.1,9.9 16.5,14.9 5,4.6 5.2,12.2 0.7,17.1 -4.5,4.9 -12.3,5.2 -17.3,0.7 -3.5,-3.2 -7.1,-6.3 -10.6,-9.5 -5.7,-5.1 -11.4,-10.3 -17.2,-15.4 -0.6,-0.5 -1.3,-0.8 -1.9,-1.2 -0.9,-0.7 -2.1,-1.4 -2.6,-2.4 -0.9,-1.6 -2.4,-2.3 -3.6,-3.5 -6,4.2 -9.9,9.6 -11.8,16.7 h 4 c 1.9,0 2.1,0.2 2.1,2.2 0,5.4 0,10.7 0.1,16.1 0.1,14.4 0.1,28.8 0.2,43.2 0,1.6 -0.2,1.8 -1.8,1.8 h -4 c -0.5,3.9 7,14.7 11.8,16.8 0.3,-0.3 0.7,-0.5 1,-0.9 1.1,-1.1 2,-2.4 3.2,-3.4 1.1,-1 2.5,-1.6 3.6,-2.6 6.9,-6 13.7,-12.2 20.6,-18.2 2.7,-2.3 5.2,-4.8 8,-6.9 5.2,-3.9 12.7,-2.7 16.9,2.6 4,5 3.4,12.3 -1.4,16.5 -8,7.1 -16,14.2 -24.1,21.3 -1.5,1.3 -3.1,2.7 -4.6,4 -0.5,0.6 -1.4,1.4 -2.6,2.5 z m -61.4,-202 c 0.4,4.3 2.4,7.7 6.5,9.5 1.9,0.8 4,1.1 6,1.4 1.4,0.2 2.9,0.4 4.2,0.2 4,-0.5 7.9,-1.3 11.9,-1.7 2,-0.2 4.1,-0.3 6.1,-0.1 3.2,0.3 6.3,1 9.5,1.4 3.6,0.5 7.3,1 10.9,1.5 3.1,0.5 6.2,1.1 9.4,1.5 4.6,0.6 8.4,2.4 11,6.3 3.4,5.1 6.6,10.4 9.8,15.6 2.2,3.7 5.3,6 9.7,6.3 3.8,0.2 6.9,-1.2 9.1,-4.2 1.9,-2.5 3.5,-5.3 5.3,-7.9 1,-1.5 2.1,-2.9 3,-4.4 1.5,-2.5 3.2,-5 4.2,-7.7 0.9,-2.7 1.3,-5.8 1.4,-8.7 0.2,-4.9 -3.6,-9.5 -8.2,-10.4 -4.2,-0.8 -8.5,-1.4 -12.8,-2.1 -6.6,-1 -13.2,-1.9 -19.7,-2.9 -5,-0.8 -10,-1.6 -14.9,-2.4 L 166.6,9.4 c -7,-1.1 -14.1,-2.1 -21.1,-3.3 -5.5,-0.9 -10.7,2.6 -12,7.4 -0.7,2.7 -1.2,8.6 -1.1,8.9 z m 119.1,269.1 c 0.1,0 0.2,0 0.3,-0.1 -0.6,-2.9 -0.9,-6 -2,-8.7 -1.1,-2.8 -3.1,-5.4 -4.7,-8 -1.7,-2.7 -3.5,-5.5 -5.4,-8.1 -1.7,-2.4 -3.1,-5 -5.9,-6.5 -4.4,-2.4 -11,-1.4 -14.1,3.3 -3.5,5.4 -6.9,10.9 -10.4,16.4 -2.2,3.4 -5.2,5.6 -9.3,6.2 l -14.7,2.1 c -5.4,0.7 -10.9,1.5 -16.3,2.1 -1.7,0.2 -3.4,0.4 -5.1,0.2 -2.6,-0.3 -5.1,-0.8 -7.6,-1.3 -4.6,-0.9 -9.2,-1.4 -13.9,-0.5 -5.2,1 -9.4,6.1 -8.9,11.4 0.2,2.1 0.4,4.2 0.8,6.2 1.2,6.1 6.4,9.7 12.2,9 5,-0.6 10.1,-1.3 15.1,-2 6.7,-0.9 13.3,-1.7 20,-2.6 6.5,-0.9 13.1,-1.8 19.6,-2.6 4.3,-0.6 8.7,-1.1 13,-1.7 3.7,-0.5 7.4,-1.1 11.1,-1.6 5.6,-0.8 11.2,-1.5 16.9,-2.3 5.2,-0.6 9.8,-5.2 9.3,-10.9 z m -28.9,-46.2 c -2.8,-1.6 -5.4,-2.9 -7.7,-4.5 -6.6,-4.7 -13.1,-9.5 -19.7,-14.3 l -2.1,-1.5 c -15.3,13.3 -30.6,26.6 -45.8,39.8 2.2,5.9 4.3,11.6 6.4,17.3 2.9,0.5 5.8,1 8.6,1.5 1.9,0.3 3.8,0.6 5.7,0.5 2.7,-0.1 5.4,-0.7 8.2,-1 6.8,-0.9 13.5,-2 20.3,-2.6 5.6,-0.6 9.8,-2.8 12.6,-7.8 2.5,-4.5 5.5,-8.9 8.3,-13.3 0.7,-1.1 1.7,-2.1 2.6,-3.1 2,-2.1 3.5,-4.4 3.1,-7.5 -0.1,-1.3 -0.4,-2.5 -0.5,-3.5 z M 146.4,56.7 c 15.4,13.6 30.7,27.1 46.1,40.7 0.5,-0.4 1,-0.7 1.5,-1 2.9,-2.1 5.8,-4.2 8.8,-6.2 6.2,-4.1 11.7,-9.4 19,-12.1 0.2,-0.9 0.3,-1.9 0.5,-2.9 0.7,-3.4 -0.9,-6 -3.1,-8.4 -1,-1.1 -2.1,-2.2 -2.9,-3.5 -3.1,-4.8 -6.1,-9.7 -9.2,-14.6 -1.9,-3 -4.4,-5 -7.9,-5.9 -1.3,-0.3 -2.6,-0.5 -3.9,-0.7 -7.4,-1.1 -14.8,-2.3 -22.2,-3.4 -3.4,-0.5 -6.8,-1.5 -10.4,-0.8 -1.2,0.2 -2.4,0.4 -3.5,0.5 -2.2,0.3 -4.4,0.7 -6.6,1 -2,5.9 -4,11.5 -6.2,17.3 z m 70.2,119.7 c -1.8,0 -3.7,0.4 -5.3,1.7 -2,1.5 -3.9,3.1 -5.8,4.7 -3,2.6 -5.9,5.4 -8.9,8 -3.1,2.8 -6.3,5.5 -9.4,8.2 -2.6,2.2 -5.1,4.5 -7.6,6.7 -2.9,2.5 -5.8,4.9 -8.7,7.4 -3.7,3.2 -7.2,6.4 -10.9,9.6 l -11.4,9.9 c -2.3,2 -4.4,4.1 -6.7,6.1 -2.6,2.3 -5.3,4.5 -7.9,6.8 -2.9,2.6 -5.7,5.2 -8.4,7.9 -1.4,1.4 -2.9,2.8 -4,4.4 -2.7,4.3 -1.9,9.8 1.9,13.3 3.6,3.4 9.6,4 13.6,1 2.8,-2.1 5.2,-4.5 7.8,-6.7 3.3,-2.9 6.5,-5.7 9.8,-8.6 4.1,-3.6 8.1,-7.2 12.2,-10.8 4.9,-4.2 9.9,-8.3 14.8,-12.6 4.5,-3.9 8.9,-7.9 13.4,-11.9 6.6,-5.8 13.2,-11.6 19.8,-17.5 2.9,-2.6 5.7,-5.3 8.7,-7.8 2.3,-1.9 3.8,-4.1 4.3,-7 1.3,-7 -4.3,-12.8 -11.3,-12.8 z M 119.2,57.3 c 0,3.9 1.5,6.5 3.8,8.7 2.4,2.4 4.9,4.7 7.4,7 3.5,3.2 7,6.5 10.6,9.7 4.4,3.9 8.8,7.6 13.2,11.5 3.4,3 6.7,6 10.1,9 3,2.6 6,5.3 9,7.9 2.8,2.4 5.5,4.8 8.3,7.3 4.1,3.7 8.3,7.4 12.4,11.2 4.9,4.4 9.8,8.8 14.6,13.2 3.6,3.3 7.7,4.8 12.5,3 5.8,-2.2 8.6,-8.8 6,-14.4 -1.2,-2.6 -3.5,-4.4 -5.5,-6.3 -3.5,-3.3 -7.2,-6.4 -10.8,-9.6 -6.2,-5.5 -12.3,-11.1 -18.4,-16.6 -4.4,-4 -8.9,-8 -13.4,-12 -3.2,-2.9 -6.5,-5.7 -9.7,-8.5 -2.1,-1.8 -4.3,-3.6 -6.4,-5.4 -2.2,-1.9 -4.3,-4 -6.5,-6 -4.5,-4 -8.9,-8.1 -13.5,-12 -2.6,-2.3 -5.2,-4.7 -8.1,-6.5 -6.2,-3.9 -15.8,0.6 -15.6,8.8 z M 88.8,261.5 c 0,0.1 -0.1,0.2 -0.1,0.4 l 0.9,0.9 c 0.9,1.1 2,2.2 2.7,3.4 2.5,4.2 4.9,8.4 7.2,12.7 1.9,3.6 4.8,5.2 8.7,5.1 3.3,0 6.7,0 10.1,0.1 6.3,0.1 11.4,3.7 13.8,9.5 0.2,0.4 0.4,0.9 0.7,1.5 0.3,-0.4 0.4,-0.7 0.5,-0.9 2,-4.6 5.5,-7 10.5,-7.6 2.2,-0.2 4.4,-0.5 6.8,-0.7 -2.2,-5.9 -4.4,-11.8 -6.6,-18 -1.8,1.5 -3.3,2.9 -4.9,4.3 -3.9,3.2 -8.3,4.1 -12.9,2.1 -4.8,-2.1 -7.3,-6 -7.4,-11.2 v -1.3 c -10.2,-0.1 -20.1,-0.2 -30,-0.3 z m 60.8,-226 c -2.5,-0.3 -4.8,-0.5 -7.1,-0.9 -4.7,-0.6 -8.1,-3 -10.1,-7.3 -0.2,-0.4 -0.4,-0.8 -0.7,-1.3 -0.3,0.5 -0.4,0.8 -0.6,1.2 -2.6,6.4 -7.5,9.6 -14.5,9.6 -3.4,0 -6.8,-0.1 -10.2,-0.1 -3.4,0 -6,1.5 -7.6,4.4 l -6,10.8 c -1.2,2.2 -2.3,4.5 -4.3,6 l -0.6,0.6 c 0,0.1 0.1,0.2 0.1,0.3 l 29.9,0.3 c -0.1,0.1 0,0 0,0 v -1.5 c 0.1,-4.7 2.2,-8.3 6.4,-10.5 4.3,-2.2 8.7,-1.9 12.7,1 1.6,1.1 3,2.6 4.5,3.9 0.5,0.4 1,0.8 1.6,1.3 2.2,-6.1 4.3,-11.9 6.5,-17.8 z M 108.2,61.1 C 101.3,61 94.5,60.9 87.6,60.9 c -4,0 -8,0.2 -12.1,0.2 -7.6,0 -15.2,-0.1 -22.9,-0.2 h -7 C 43.7,61 42.1,62 42,63.3 c -0.1,2.7 0,5.4 0,8.2 24.7,0.1 49.3,0.5 74,0.6 V 61 c 0,0 -5.8,0.1 -7.8,0.1 z M 42.8,248 c 0,2.5 -0.1,5 0.1,7.6 0.1,1.5 1.2,2.5 2.7,2.7 1.2,0.2 2.4,0.3 3.6,0.3 12.8,0.3 25.6,0.5 38.4,0.7 3.3,0.1 6.6,0.2 9.9,0.2 4,0.1 8,0.1 11.9,0.1 1.9,0 7.6,0.5 7.6,0.5 V 248.6 C 92.1,248.5 67.6,248.3 42.8,248 Z M 337,93.7 c 0.1,0.6 0.2,1.1 0.3,1.6 0.4,1.7 1,3.3 1.2,5.1 1.2,8.4 2.5,16.8 3.4,25.2 1.2,11 1.5,22 1.5,33 v 9.1 c 0,5.5 -0.1,10.9 -0.3,16.4 -0.3,9.1 -0.8,18.2 -2.1,27.2 -1,6.6 -1.6,13.3 -3.5,19.7 -0.1,0.2 0,0.5 0,0.8 1.9,0.1 2.7,-1.2 3.3,-2.5 0.7,-1.5 1.2,-3 1.6,-4.6 1.6,-6 2.4,-12.2 3,-18.4 1.1,-10.7 1.8,-21.5 1.8,-32.3 0,-11.4 -0.2,-22.8 -0.6,-34.3 -0.2,-6.8 -0.9,-13.5 -1.6,-20.3 -0.7,-6.5 -1.5,-13 -3.4,-19.3 -0.5,-1.8 -1.4,-3.5 -2.3,-5.1 -0.2,-0.9 -1,-1.4 -2.3,-1.3 z m -170.9,97.1 c 0.7,-2 0.5,-57.7 -0.2,-59.6 -2.1,-0.8 -3,-0.4 -4,1.8 -1.3,0.2 -1.6,1.1 -1.5,2.4 0.1,1.3 0.2,2.6 0,3.8 -0.3,3.3 -0.3,6.6 0.7,9.9 0.9,3.1 1.6,6.2 2.5,9.3 0.5,1.7 0.5,3.3 0,5 -0.7,2.8 -1.4,5.5 -2.1,8.3 -0.6,2.4 -1.3,4.7 -1.2,7.2 0.1,2.4 0.3,4.9 0.2,7.4 0,1.3 0.2,2.2 1.4,2.6 0.5,0.8 0.9,1.4 1.2,2 1.3,-0.1 2.2,-0.1 3,-0.1 z M 244.4,51.5 c -0.1,0 -0.3,-0.1 -0.4,-0.1 -0.4,0.5 -0.7,1 -1.1,1.5 -1.8,2.8 -3.6,5.5 -5.5,8.3 -3.6,5.4 -10.6,6.8 -16.3,3.5 -0.4,-0.2 -0.7,-0.4 -1.4,-0.7 1.2,2.4 2.6,4.3 3.2,6.4 0.5,2.2 0.1,4.5 0.1,7.1 6.1,-1.3 11.7,-0.4 17.2,2.3 1.6,-9.6 2.9,-19 4.2,-28.3 z m 0.6,220.6 c 0.1,0 0.2,-0.1 0.3,-0.1 -1.5,-9.4 -2.7,-18.7 -4.3,-28.3 -5.6,2.7 -11.2,3.1 -16.9,2.1 -0.1,2.6 0.2,5 -0.4,7.1 -0.6,2.2 -2,4.1 -3.2,6.4 0.4,-0.2 0.6,-0.3 0.7,-0.4 6.1,-3.9 13.2,-2.4 17.3,3.7 1.7,2.5 3.3,5.1 5,7.6 0.5,0.6 1,1.2 1.5,1.9 z M 44.4,246.5 c 0,0.2 0.1,0.3 0.1,0.5 1,0.1 2,0.1 3.1,0.2 l 60,0.6 h 8.9 c 1,0 1.8,-0.5 2.1,-1.7 -0.6,0 -1.2,-0.1 -1.7,-0.1 -7.3,-0.1 -14.6,-0.2 -21.9,-0.2 -6.3,-0.1 -12.7,-0.2 -19,-0.2 -8,-0.1 -16.1,-0.1 -24.1,-0.1 -1.7,0 -3.4,0.1 -5.1,0.3 -0.8,-0.1 -1.6,0.4 -2.4,0.7 z M 43.5,72.7 c 1.1,1.1 2.2,1.3 3.2,1.4 4.6,0.2 9.2,0.4 13.8,0.4 l 32.3,0.3 24.6,0.3 c 0.2,0 0.3,-0.1 0.5,-0.2 -0.4,-1.2 -1.2,-1.6 -2.4,-1.6 L 102.7,73 75,72.7 46,72.4 c -0.7,0 -1.4,0.2 -2.5,0.3 z m 113.8,215.1 c 3,0.4 5.8,1.2 8.6,1.1 4.6,-0.3 9.2,-1.2 13.9,-1.9 0.6,-0.1 1.2,-0.5 1.9,-0.7 -0.2,-0.9 -0.3,-1.6 -0.5,-2.5 -0.7,0 -1.3,-0.1 -1.8,0 -1.7,0.2 -3.4,0.4 -5,0.6 -4.2,0.6 -8.4,1.3 -12.7,0.2 -1.2,-0.3 -2.4,-0.4 -3.7,-0.6 -0.3,-0.1 -0.7,0 -1.2,0 0.1,1.3 0.3,2.5 0.5,3.8 z M 156.2,33.9 c -0.2,1.4 -0.3,2.5 -0.5,3.9 2.1,-0.3 3.9,-0.6 5.8,-0.8 2,-0.2 4,-0.4 6,-0.3 3.5,0.3 7,1 10.5,1.5 0.7,0.1 1.4,0 2.3,0 0.1,-0.9 0.2,-1.6 0.3,-2.5 -0.7,-0.3 -1.2,-0.6 -1.8,-0.7 -4.8,-0.8 -9.7,-1.8 -14.6,-2.2 -2.6,0 -5.2,0.8 -8,1.1 z m 52.2,13.5 v -0.8 c -2,-4.1 -5.2,-7 -9.8,-7.9 -1.3,-0.3 -2.6,-0.5 -3.9,-0.6 -1.6,-0.2 -3.2,-0.3 -4.8,-0.4 -0.4,1.4 -0.2,1.8 1,2.1 2,0.5 4,0.9 6.1,1.2 4.1,0.5 7.5,2.3 10.1,5.6 0.2,0.1 0.7,0.3 1.3,0.8 z M 191,284.9 c 2.5,-0.3 5,-0.6 7.5,-0.8 4.8,-0.5 8.2,-2.9 10.4,-7 0.2,-0.4 0.3,-0.8 0.5,-1.2 -0.1,-0.1 -0.3,-0.2 -0.4,-0.3 -0.4,0.4 -0.9,0.8 -1.3,1.2 -2.3,2.7 -5.2,4.3 -8.8,4.8 -2.1,0.3 -4.3,0.6 -6.4,1 -0.7,0.1 -1.4,0.5 -2.2,0.8 0.3,0.5 0.5,0.9 0.7,1.5 z m 14.2,-2.8 c -2,1.3 -4.2,2 -6.5,2.3 -2.3,0.3 -4.6,0.5 -6.8,0.7 -2.2,0.2 -2.5,-0.1 -2.6,-2.2 0,-0.1 -0.1,-0.2 -0.3,-0.4 -2.1,0.3 -4.3,0.6 -6.4,0.8 -0.4,1.4 -0.7,2.6 -1,3.9 h 0.3 c 5.7,-0.8 11.4,-1.5 17.2,-2.3 2.2,-0.3 4.4,-1.2 6.1,-2.8 z m -2,-242.3 c -1.6,-1.4 -3.6,-1.9 -5.7,-2.2 -3.6,-0.6 -7.2,-1.1 -10.8,-1.6 -2.2,-0.3 -4.3,-0.6 -6.4,-0.9 0.3,0.6 0.8,0.8 1,1.4 0.2,0.6 0,1.7 0.1,2.6 2.3,0.3 4.5,0.7 6.9,1 V 39 c 0,-1.2 0.5,-1.7 1.7,-1.6 4.4,0.3 9,0.4 13.2,2.4 z m -79.4,212.9 c -1.7,0 -3.3,0 -5.1,-0.1 v 7.3 c 1.2,-2.7 2.9,-4.9 5.1,-7.2 z M 123.4,68.4 C 121,66.2 119.1,64 118,61.2 v 7.2 c 1.9,-0.1 3.5,-0.1 5.4,0 z m 20.8,-14.5 c 0.2,0 0.4,0.1 0.5,0.1 2.2,-6.1 4.6,-12.1 6.2,-18.4 -0.3,0.3 -0.6,0.6 -0.7,0.9 -2,5.4 -4,10.8 -5.9,16.2 -0.2,0.4 -0.1,0.8 -0.1,1.2 z m 7.3,232.2 c 0.2,-0.1 0.5,-0.2 0.7,-0.2 -2.2,-6.1 -4.4,-12.3 -6.6,-18.4 -0.1,0 -0.3,0 -0.4,0.1 -0.1,0.2 -0.3,0.5 -0.2,0.7 2.1,5.9 4.3,11.8 6.5,17.8 z M 338.8,160.5 c -1.2,0 -2.3,1 -2.2,2.2 0,1.2 1,2.2 2.2,2.2 1.3,0 2.3,-1 2.2,-2.2 0,-1.2 -1,-2.2 -2.2,-2.2 z M 218.3,63.9 c -1.8,-4.8 -4.2,-9.1 -7.5,-13 -0.2,0.1 -0.3,0.2 -0.5,0.3 2.3,4.4 5.2,8.5 8,12.7 z m 0.8,198.2 c -0.1,-0.2 -0.4,-2 -0.1,-2.9 -0.1,0 -0.2,-0.1 -0.3,-0.1 -2.4,3.9 -4.9,7.8 -7.3,11.7 -0.2,0.2 -0.1,0.6 -0.1,0.9 0.1,0 0.2,0.1 0.3,0.1 1.6,-2.1 6.9,-8.9 7.5,-9.7 z m -68,-221.3 c -0.2,-0.1 -0.4,-0.1 -0.5,-0.2 -1.7,4.7 -3.4,9.4 -5.1,14 0.2,0.1 0.4,0.1 0.5,0.2 1.7,-4.7 3.4,-9.3 5.1,-14 z m 0.5,240.3 c 0.2,-0.1 0.4,-0.1 0.5,-0.2 -1.8,-4.7 -3.5,-9.5 -5.3,-14.2 -0.2,0.1 -0.4,0.1 -0.5,0.2 1.8,4.7 3.5,9.5 5.3,14.2 z M 126.2,71.9 v -0.6 c -2.4,-0.6 -4.9,-0.2 -7.4,0 0.4,0.4 0.9,0.7 1.3,0.7 0.7,0 1.4,-0.1 2.2,-0.2 1.3,0.1 2.6,0.1 3.9,0.1 z M 154,34.7 c -1.8,0.7 -2.9,2.9 -2.1,4.3 1.5,-1 1.5,-2.8 2.1,-4.3 z m -1.4,248.1 c -0.2,1.9 0.8,3.6 2.4,4.2 -0.6,-2.7 -1.2,-3.8 -2.4,-4.2 z m -25.9,-33 v -0.5 c -2.2,-0.1 -4.3,-0.3 -6.5,-0.3 -0.2,0 -0.5,0.4 -1,0.8 z M 124.2,70 c -0.9,-0.8 -5,-1 -6.2,-0.2 2.1,0.5 4.2,0.4 6.2,0.2 z m 0.8,181.5 v -0.6 c -2,0.1 -4.1,-0.4 -6.1,0.5 2,0.3 4,0.6 6.1,0.1 z M 220.5,63.4 c 2.6,2.3 5.6,2.9 8.9,2.4 -3.2,0.1 -6.2,-0.7 -8.9,-2.4 z m -65.7,220.2 c 0.5,1.3 0.9,2.4 1.3,3.5 0.5,-2.3 0.2,-3.1 -1.3,-3.5 z M 153.9,37.9 c 0.1,0.1 0.2,0.1 0.4,0.2 1.1,-0.5 1.5,-2 0.9,-3.6 -0.5,1.2 -0.9,2.3 -1.3,3.4 z m 75.5,219.3 c -2.1,-0.3 -4.3,0 -6.5,1.2 2.3,-0.4 4.5,-0.8 6.5,-1.2 z M 209.4,50 c 0.1,0 0.3,-0.1 0.4,-0.1 0,-0.4 0,-0.8 -0.2,-1.2 -0.1,-0.2 -0.5,-0.2 -0.8,-0.3 -0.1,0.1 -0.1,0.2 -0.2,0.3 0.3,0.4 0.6,0.9 0.8,1.3 z m 0.1,224.3 c 1.4,-0.2 1.5,-0.4 0.8,-1.6 z M 118.3,73.5 c 0.2,-0.1 0.3,-0.2 0.5,-0.3 -0.3,-0.5 -0.6,-0.9 -0.9,-1.4 -0.2,0.1 -0.3,0.2 -0.5,0.3 0.3,0.5 0.6,1 0.9,1.4 z m -0.1,175.3 c 0.2,0.1 0.4,0.2 0.5,0.3 0.3,-0.5 0.5,-0.9 0.8,-1.4 -0.2,-0.1 -0.3,-0.2 -0.5,-0.3 -0.3,0.5 -0.6,1 -0.8,1.4 z"
       fill="#ffffff"
       id="path1487"
       style="fill:none;fill-opacity:1;stroke:#fe2600;stroke-width:4.01914;stroke-linejoin:round;stroke-miterlimit:4;stroke-dasharray:none;stroke-opacity:1" /></g><path
     d="m 143.9,4.9 c 0.8,0 1.7,0.1 2.6,0.2 6.8,1.2 13.6,2.1 20.4,3.2 6.7,1 13.4,2.1 20.1,3.1 6.7,1 13.3,2 20,3 6,0.9 12.1,1.9 18.1,2.8 5.4,0.8 10.7,1.7 16.1,2.4 6.7,1 11.5,7.4 10.3,13.9 -0.2,1.3 -0.4,2.5 -0.5,3.8 -0.5,4.2 -2.7,7.7 -4.6,11.4 -0.4,0.7 -0.8,1.5 -0.9,2.2 -1,6.6 -1.9,13.3 -2.8,19.9 -0.4,2.7 -0.8,5.5 -1.2,8.2 -0.1,0.5 -0.1,1 -0.2,1.6 5.9,3.9 12.1,6.6 19,6.9 7,0.3 14,0.4 20.9,0.5 16.7,0.2 33.4,0.4 50,0.5 2.2,0 3.4,0.8 4.1,2.6 0.2,0.4 0.4,0.8 0.6,1.3 h 0.4 c 4,0 4.8,3.3 6.1,6.1 2.4,1 3.3,2.8 2.4,5.5 -0.6,1.7 -0.3,3.2 -0.1,4.8 0.7,5.3 1.5,10.6 2,16 0.5,5.9 1,11.8 1.2,17.7 0.3,9.2 0.5,18.5 0.6,27.7 0,5.7 -0.2,11.5 -0.5,17.2 -0.2,4.9 -0.6,9.8 -1,14.7 -0.8,8.3 -1.6,16.6 -4,24.6 -0.6,1.9 -1.3,3.6 -2.7,5.1 -0.9,1 -2,1.2 -3.2,1.2 h -0.6 c -0.3,0.6 -0.6,1.2 -0.9,1.9 -0.6,1.4 -1.6,2 -3.3,2 h -0.1 c -22.4,-0.3 -44.8,-0.4 -67.1,-0.7 h -0.5 c -7.5,0 -14.5,1.8 -20.9,5.7 -0.6,0.3 -1.1,0.7 -1.8,1.2 0.2,1.6 0.4,3.3 0.7,4.9 1.2,8.2 2.4,16.3 3.7,24.5 0.2,1 0.6,2 1.1,2.9 3.2,5.3 5.2,11 5.2,17.2 0,5.7 -4.4,10.7 -10.1,11.5 -12.3,1.6 -24.6,3.3 -36.9,4.9 -11.7,1.6 -23.5,3.2 -35.2,4.7 -8.2,1.1 -16.3,2.3 -24.5,3.1 -0.4,0 -0.9,0.1 -1.3,0.1 -6.1,0 -11,-4.6 -11.9,-10.7 -0.5,-3.8 -0.9,-7.6 -2.4,-11.2 -2.3,-5.5 -6.7,-8.7 -12.7,-8.8 -3.5,0 -7,-0.1 -10.5,-0.1 -4,0 -7,-1.8 -9,-5.2 l -8.4,-14.7 c -2.1,-3.7 -5.2,-5.5 -9.5,-5.5 -10.2,0 -20.3,-0.2 -30.5,-0.3 -1.6,0 -3.1,-0.1 -4.7,-0.3 -2.3,-0.2 -3.8,-1.8 -3.9,-3.9 -0.1,-2.9 0,-5.8 -0.1,-8.6 2.5,-2.1 5.3,-2.9 8.4,-2.9 h 0.2 c 22.8,0.2 45.7,0.5 68.5,0.7 0.5,0 1,0.1 1.6,0.1 0.1,1 0.1,2 0.2,3.1 h 2.8 c 0.8,0 1.6,0 2.4,0.1 h 0.6 c 1.6,0 2.9,-0.7 4.1,-1.8 6.6,-6 13.3,-11.8 20,-17.7 6.9,-6.2 13.8,-12.4 20.7,-18.5 0.2,-0.1 0.3,-0.3 0.6,-0.6 -0.4,-0.4 -0.8,-0.8 -1.2,-1.1 -4.9,-4.1 -8.2,-9.2 -9.8,-15.3 -0.2,-0.7 0,-1.4 0,-2.4 -0.9,-0.8 -1.1,-2 -1.1,-3.5 0.1,-2.6 0,-5.3 -0.2,-7.9 -0.3,-3.2 1,-6.2 1.7,-9.2 0.5,-2.2 1.1,-4.4 1.7,-6.6 0.5,-1.8 0.5,-3.5 0,-5.2 -1.1,-3.9 -2.2,-7.7 -3.1,-11.6 -0.3,-1.4 -0.4,-2.8 -0.4,-4.2 0,-2.9 0,-5.9 0.1,-8.8 0.1,-1 0.7,-2 1,-3 0,-0.6 -0.2,-1.3 0,-2 1.6,-6.2 5,-11.2 9.9,-15.3 0.3,-0.3 0.7,-0.6 1.1,-0.9 -1.9,-1.7 -3.7,-3.4 -5.5,-5 -12.4,-11.2 -24.8,-22.3 -37.1,-33.5 -0.7,-0.7 -1.5,-1 -2.5,-1 h -4.9 c -0.5,0 -1,0.1 -1.6,0.1 0,1 -0.1,1.9 -0.1,2.9 -0.6,0 -1,0.1 -1.5,0.1 C 94.7,76.5 71.8,76.2 49,76 c -3.1,0 -6,-0.9 -8.5,-3.1 0,-2.8 -0.1,-5.8 0,-8.8 0.1,-2.1 1.7,-3.5 3.9,-3.7 1.5,-0.1 3,-0.2 4.5,-0.2 h 0.3 c 10.2,0.1 20.4,0.1 30.6,0.3 H 80 c 4,0 6.9,-1.8 8.8,-5.1 2.7,-4.7 5.4,-9.5 8.1,-14.3 1.6,-2.9 4,-4.8 7.3,-5.3 0.5,-0.1 1.1,-0.1 1.7,-0.1 h 0.1 c 3.6,0 7.3,0.1 10.9,0.1 h 0.1 c 5.5,0 10,-3.3 12.1,-8.3 1.5,-3.5 1.9,-7.3 2.3,-11 1.2,-7.4 6.1,-11.6 12.5,-11.6 m 0,-0.7 c -6.8,0 -12,4.6 -12.9,11.5 l -0.1,0.9 c -0.4,3.4 -0.9,6.7 -2.2,9.9 -2,4.9 -6.3,7.8 -11.5,7.8 h -0.1 c -1.9,0 -3.9,0 -5.8,-0.1 h -5.2 c -0.7,0 -1.3,0 -1.8,0.1 -3.4,0.6 -6.1,2.5 -7.9,5.7 l -0.2,0.3 c -2.6,4.6 -5.2,9.4 -7.9,14 -1.8,3.2 -4.5,4.7 -8.2,4.7 H 79.9 C 70.4,58.8 60.7,58.8 51.4,58.7 H 49 c -1.3,0 -2.7,0.1 -4.6,0.2 -2.6,0.2 -4.5,2 -4.6,4.4 -0.1,2.1 -0.1,4.3 0,6.3 v 2.5 c 0,0.2 0.1,0.4 0.3,0.6 2.5,2.1 5.5,3.2 9,3.2 12.4,0.1 24.9,0.2 37.3,0.4 l 31.3,0.3 c 0.4,0 0.7,0 1.1,-0.1 0.2,0 0.3,0 0.5,-0.1 0.4,0 0.7,-0.3 0.7,-0.7 v -0.9 l 0.1,-1.4 c 0.3,0 0.6,-0.1 0.9,-0.1 h 4.9 c 0.7,0 1.3,0.2 2,0.8 9.9,9 20,18.1 29.8,26.9 l 7.3,6.6 3.8,3.4 1.1,1 c -0.2,0.1 -0.3,0.3 -0.5,0.4 -5.1,4.1 -8.5,9.4 -10.1,15.6 -0.2,0.6 -0.1,1.2 -0.1,1.7 v 0.4 c -0.1,0.3 -0.2,0.5 -0.3,0.8 -0.3,0.7 -0.6,1.5 -0.7,2.3 -0.2,3.1 -0.2,6.2 -0.1,8.9 0,1.3 0.1,2.9 0.4,4.4 1,3.9 2,7.8 3.1,11.6 0.5,1.7 0.5,3.3 0,4.9 -0.6,2.2 -1.3,4.4 -1.8,6.6 l -0.6,2.4 c -0.6,2.2 -1.3,4.5 -1.1,7 0.2,2.5 0.4,5.2 0.2,7.8 0,1.2 0,2.8 1.1,3.9 v 0.6 c 0,0.6 -0.1,1.2 0.1,1.7 1.6,6.1 5,11.4 10,15.7 0.2,0.2 0.4,0.4 0.7,0.6 l -5.4,4.8 c -5,4.5 -10.2,9.1 -15.3,13.7 -2.4,2.2 -4.9,4.3 -7.3,6.5 -4.2,3.7 -8.5,7.5 -12.7,11.3 -1.3,1.2 -2.3,1.6 -3.6,1.6 h -0.5 c -0.9,-0.1 -1.8,-0.1 -2.5,-0.1 h -2 l -0.1,-1 -0.1,-1.5 c 0,-0.4 -0.3,-0.7 -0.7,-0.7 -0.2,0 -0.4,0 -0.6,-0.1 -0.4,0 -0.7,-0.1 -1.1,-0.1 L 90.7,243.4 C 77.1,243.3 63.4,243.1 49.8,243 h -0.2 c -3.5,0 -6.4,1 -8.9,3.1 -0.2,0.1 -0.3,0.3 -0.3,0.6 v 2.5 c 0,2 0,4.1 0.1,6.1 0.1,2.5 1.9,4.3 4.6,4.6 1.8,0.2 3.3,0.3 4.7,0.3 l 5.1,0.1 c 8.3,0.1 16.9,0.2 25.4,0.2 4,0 6.9,1.7 8.9,5.1 l 3.6,6.3 4.8,8.4 c 2.1,3.6 5.3,5.5 9.6,5.6 1.7,0 3.4,0 5.1,0.1 1.8,0 3.6,0 5.4,0.1 5.5,0.1 9.8,3 12,8.3 1.3,3.1 1.7,6.3 2.2,9.7 0.1,0.4 0.1,0.9 0.2,1.3 0.9,6.6 6.2,11.4 12.6,11.4 0.4,0 0.9,0 1.3,-0.1 6.2,-0.6 12.5,-1.5 18.5,-2.3 2,-0.3 4,-0.5 6,-0.8 6.5,-0.9 12.9,-1.7 19.4,-2.6 l 15.9,-2.1 c 5.4,-0.7 10.7,-1.4 16.1,-2.1 6.9,-0.9 13.8,-1.8 20.8,-2.8 6,-0.8 10.7,-6.2 10.7,-12.2 0,-6 -1.8,-11.7 -5.4,-17.6 -0.5,-0.9 -0.9,-1.8 -1,-2.6 -1,-6.7 -2,-13.4 -3,-20 l -0.7,-4.5 c -0.2,-1.1 -0.3,-2.2 -0.5,-3.3 l -0.2,-1.1 c 0.1,-0.1 0.2,-0.1 0.2,-0.2 0.4,-0.3 0.8,-0.5 1.2,-0.7 6.1,-3.7 13,-5.6 20.5,-5.6 h 0.5 l 28.1,0.3 c 12.8,0.1 26,0.3 39,0.4 h 0.1 c 1.9,0 3.2,-0.8 3.9,-2.4 l 0.6,-1.2 0.1,-0.2 h 0.1 c 1.3,0 2.6,-0.2 3.8,-1.4 1.3,-1.4 2.1,-3.1 2.8,-5.4 2.5,-8.1 3.3,-16.6 4,-24.7 0.5,-4.7 0.8,-9.7 1,-14.7 0.3,-6.1 0.5,-11.6 0.5,-17.2 -0.1,-8.8 -0.3,-18.1 -0.6,-27.7 -0.2,-5.6 -0.6,-11.4 -1.2,-17.7 -0.4,-3.9 -0.9,-7.9 -1.4,-11.7 -0.2,-1.4 -0.4,-2.9 -0.6,-4.3 l -0.1,-0.4 c -0.2,-1.4 -0.4,-2.7 0.1,-4 1,-2.9 0.1,-5.1 -2.6,-6.3 -0.1,-0.3 -0.3,-0.6 -0.4,-0.9 -1.1,-2.5 -2.3,-5.4 -6.2,-5.4 -0.1,-0.3 -0.3,-0.5 -0.4,-0.8 -0.8,-2.1 -2.3,-3.1 -4.8,-3.1 -16.6,-0.1 -33.2,-0.3 -50,-0.5 h -2.7 c -6,-0.1 -12.2,-0.1 -18.2,-0.4 -6.1,-0.3 -11.9,-2.4 -18.3,-6.6 v -0.1 c 0,-0.3 0.1,-0.7 0.1,-1 0.2,-1.2 0.3,-2.4 0.5,-3.6 0.2,-1.5 0.4,-3.1 0.7,-4.6 0.3,-2 0.6,-4 0.8,-6 0.6,-4.6 1.3,-9.3 2,-14 0.1,-0.7 0.5,-1.4 0.8,-2 0.3,-0.5 0.6,-1 0.8,-1.6 1.7,-3.1 3.4,-6.3 3.9,-10.1 0.2,-1.2 0.3,-2.5 0.5,-3.7 0.6,-3.3 -0.3,-6.7 -2.3,-9.5 -2.1,-2.9 -5.2,-4.8 -8.7,-5.3 L 228.4,16.6 224.6,16 c -2.7,-0.4 -5.4,-0.8 -8.1,-1.3 -3.3,-0.5 -6.7,-1 -10,-1.5 -3.3,-0.5 -6.6,-1 -10,-1.5 -3.4,-0.5 -6.7,-1 -10.1,-1.5 C 182.4,9.6 178.5,9 174.5,8.4 171.7,8 169,7.5 166.2,7.1 164,6.8 161.8,6.4 159.7,6.1 155.1,5.4 150.4,4.7 145.8,3.9 c -0.1,0.3 -1,0.3 -1.9,0.3 z"
     fill="#d7d7d7"
     id="path1499"
     style="fill:none;fill-opacity:1;stroke:#fe2600;stroke-width:4.01914;stroke-miterlimit:4;stroke-dasharray:none;stroke-opacity:1" /></g></svg>
